<?xml version="1.0" standalone="no"?>
<!DOCTYPE svg PUBLIC "-//W3C//DTD SVG 20010904//EN"
 "http://www.w3.org/TR/2001/REC-SVG-20010904/DTD/svg10.dtd">
<svg version="1.0" xmlns="http://www.w3.org/2000/svg"
 width="235.000000pt" height="98.000000pt" viewBox="0 0 235.000000 98.000000"
 preserveAspectRatio="xMidYMid meet">
<metadata>
Created by potrace 1.10, written by Peter Selinger 2001-2011
</metadata>
<g transform="translate(0.000000,98.000000) scale(0.100000,-0.100000)"
fill="#000000" stroke="none">
<path d="M605 830 c-10 -16 4 -30 31 -30 l24 0 0 -210 0 -210 -23 0 c-29 0
-37 -7 -30 -26 4 -11 29 -14 109 -14 97 0 104 1 104 20 0 16 -7 20 -31 20
l-31 0 4 230 3 230 -77 0 c-42 0 -80 -4 -83 -10z m123 -243 c2 -202 2 -207
-18 -207 -19 0 -20 6 -20 211 0 195 1 210 18 207 15 -3 17 -22 20 -211z"/>
<path d="M910 820 c-24 -24 -25 -48 -4 -78 30 -43 104 -17 104 36 0 28 -34 62
-60 62 -11 0 -29 -9 -40 -20z"/>
<path d="M243 810 c-86 -27 -124 -168 -60 -228 27 -25 58 -37 149 -58 78 -18
108 -40 108 -82 0 -47 -32 -67 -105 -67 -74 0 -114 23 -130 73 -6 21 -16 32
-27 32 -15 0 -18 -9 -18 -60 l0 -59 38 -10 c112 -30 229 -25 284 12 93 63 65
218 -45 248 -184 49 -197 57 -197 108 0 40 34 61 101 61 56 0 64 -3 95 -34 19
-19 34 -41 34 -50 0 -9 8 -16 20 -16 18 0 20 7 20 59 0 52 -2 59 -22 65 -41
12 -212 16 -245 6z m-25 -134 c25 -43 55 -59 158 -85 91 -23 124 -51 124 -106
0 -60 -24 -92 -28 -37 -4 46 -34 75 -98 96 -116 37 -165 59 -174 77 -10 17
-14 89 -6 89 2 0 13 -15 24 -34z"/>
<path d="M1547 813 c-4 -3 -7 -114 -7 -245 l0 -238 345 0 345 0 0 245 0 245
-338 0 c-186 0 -342 -3 -345 -7z m663 -243 l0 -230 -325 0 -325 0 0 230 0 230
325 0 325 0 0 -230z"/>
<path d="M1597 763 c-2 -10 -5 -30 -6 -45 -1 -27 1 -28 54 -28 l55 0 0 45 0
45 -49 0 c-39 0 -51 -4 -54 -17z m93 -28 c0 -34 -1 -35 -40 -35 -39 0 -40 1
-40 35 0 34 1 35 40 35 39 0 40 -1 40 -35z"/>
<path d="M1780 735 l0 -45 50 0 50 0 0 45 0 45 -50 0 -50 0 0 -45z m90 0 c0
-34 -1 -35 -40 -35 -39 0 -40 1 -40 35 0 34 1 35 40 35 39 0 40 -1 40 -35z"/>
<path d="M1960 736 l0 -46 56 0 55 0 -3 43 -3 42 -52 3 -53 3 0 -45z m100 -1
c0 -35 0 -35 -45 -35 -45 0 -45 0 -45 35 0 35 0 35 45 35 45 0 45 0 45 -35z"/>
<path d="M1592 578 l3 -43 53 -3 52 -3 0 45 0 46 -56 0 -55 0 3 -42z m98 -3
c0 -34 -1 -35 -40 -35 -39 0 -40 1 -40 35 0 34 1 35 40 35 39 0 40 -1 40 -35z"/>
<path d="M1780 575 l0 -45 50 0 50 0 0 45 0 45 -50 0 -50 0 0 -45z m90 0 c0
-34 -1 -35 -40 -35 -39 0 -40 1 -40 35 0 34 1 35 40 35 39 0 40 -1 40 -35z"/>
<path d="M1960 575 l0 -45 49 0 c53 0 61 8 61 61 0 29 -1 29 -55 29 l-55 0 0
-45z m95 3 c0 -32 -2 -33 -42 -36 l-43 -3 0 35 c0 36 0 36 43 36 42 0 43 -1
42 -32z"/>
<path d="M1680 430 l0 -80 210 0 210 0 0 80 0 80 -210 0 -210 0 0 -80z m400
33 l0 -33 -195 0 -195 0 0 33 0 32 195 0 195 0 0 -32z m0 -73 l0 -30 -195 0
-195 0 0 30 0 30 195 0 195 0 0 -30z"/>
<path d="M850 660 c0 -15 7 -20 28 -20 l27 0 0 -130 0 -130 -27 0 c-21 0 -28
-5 -28 -20 0 -19 7 -20 105 -20 98 0 105 1 105 20 0 15 -7 20 -25 20 l-25 0 0
150 0 150 -80 0 c-73 0 -80 -2 -80 -20z m128 -153 c2 -122 2 -127 -18 -127
-19 0 -20 6 -20 131 0 119 2 130 18 127 15 -3 17 -19 20 -131z"/>
<path d="M1090 660 c0 -13 7 -20 19 -20 13 0 36 -23 65 -64 26 -35 46 -67 46
-71 0 -3 -18 -32 -41 -63 -27 -39 -49 -59 -67 -62 -15 -3 -28 -13 -30 -23 -3
-15 5 -17 67 -17 63 0 71 2 71 19 0 12 -8 21 -20 23 -20 3 -19 6 12 47 28 39
33 42 43 26 5 -10 21 -31 33 -46 l24 -29 -26 0 c-19 0 -26 -5 -26 -20 0 -19 7
-20 110 -20 103 0 110 1 110 20 0 14 -7 20 -24 20 -18 0 -36 17 -75 70 l-51
70 43 59 c33 48 48 60 70 60 20 1 27 6 27 21 0 18 -7 20 -70 20 -63 0 -70 -2
-70 -19 0 -13 8 -21 24 -23 24 -3 24 -3 -11 -43 -22 -26 -36 -35 -40 -27 -3 7
-16 26 -30 42 l-25 30 26 0 c19 0 26 5 26 20 0 19 -7 20 -105 20 -98 0 -105
-1 -105 -20z m144 -47 c8 -16 26 -39 40 -52 14 -14 26 -30 26 -36 0 -7 18 -40
41 -75 29 -46 37 -65 28 -71 -18 -11 -36 -1 -43 24 -3 13 -21 41 -41 64 -19
23 -35 46 -35 51 0 6 -16 33 -35 62 -19 29 -35 54 -35 56 0 2 9 4 20 4 11 0
26 -12 34 -27z"/>
<path d="M348 223 c16 -6 16 -95 0 -111 -9 -9 -5 -12 18 -12 20 0 25 3 15 9
-7 5 -10 14 -6 20 5 9 10 9 21 0 7 -6 11 -15 8 -20 -3 -5 19 -9 48 -8 29 0 47
3 41 6 -9 3 -13 26 -13 64 0 49 -3 59 -17 59 -13 0 -14 -3 -5 -12 7 -7 12 -31
12 -55 0 -53 -21 -66 -53 -34 l-22 22 24 20 23 19 -23 0 c-12 0 -19 -3 -16 -7
8 -8 -11 -33 -26 -33 -6 0 -7 16 -3 40 6 37 4 40 -16 39 -13 0 -17 -3 -10 -6z"/>
<path d="M687 222 c9 -6 11 -48 4 -104 -2 -15 -29 -8 -35 8 -8 21 2 54 16 54
6 0 9 3 6 6 -13 12 -48 -18 -48 -40 0 -31 18 -44 60 -44 l35 0 -3 64 c-3 58
-6 64 -25 64 -14 0 -17 -3 -10 -8z"/>
<path d="M1508 223 c7 -3 12 -25 12 -58 0 -33 -5 -55 -12 -58 -7 -3 0 -6 15
-6 19 -1 26 3 21 10 -4 7 -6 36 -5 65 1 50 0 54 -21 53 -13 0 -17 -3 -10 -6z"/>
<path d="M231 206 c-10 -12 -8 -19 8 -35 12 -12 30 -21 42 -21 14 0 19 -5 17
-17 -4 -24 -32 -28 -53 -7 -16 17 -17 17 -13 -2 4 -25 59 -32 78 -9 17 20 3
48 -26 54 -25 4 -45 21 -38 32 8 14 52 11 57 -3 2 -7 8 -10 12 -6 4 4 4 11 0
17 -9 16 -71 13 -84 -3z"/>
<path d="M1188 213 c7 -3 12 -24 12 -53 0 -29 -5 -50 -12 -53 -7 -3 2 -6 20
-6 30 -1 32 0 18 15 -24 23 -20 32 15 36 39 4 59 29 40 52 -9 11 -29 16 -60
15 -25 0 -40 -3 -33 -6z m77 -13 c9 -15 -15 -42 -33 -38 -9 2 -16 13 -17 26
-1 17 4 22 21 22 13 0 26 -5 29 -10z"/>
<path d="M527 183 c-14 -13 -6 -25 8 -13 18 15 29 7 40 -28 4 -16 2 -24 -10
-28 -23 -9 -45 14 -25 26 13 8 13 10 -2 10 -9 0 -20 -5 -23 -10 -12 -20 16
-39 57 -38 28 0 37 3 29 11 -6 6 -11 23 -11 38 0 32 -42 53 -63 32z"/>
<path d="M755 145 c0 -34 4 -45 16 -45 12 0 14 8 10 42 -8 57 -26 59 -26 3z"/>
<path d="M812 178 c-18 -18 -15 -24 18 -38 36 -15 30 -32 -8 -24 -23 4 -25 4
-9 -6 10 -7 29 -9 43 -6 27 7 33 34 9 41 -48 15 -48 16 -37 27 8 8 15 8 27 -2
8 -7 19 -10 22 -6 9 9 -16 26 -37 26 -9 0 -21 -5 -28 -12z"/>
<path d="M898 183 c6 -3 12 -20 12 -38 0 -18 -6 -36 -12 -38 -7 -3 -2 -6 12
-6 22 -1 25 3 25 36 0 27 4 38 15 38 19 0 26 -55 8 -66 -9 -6 -5 -9 13 -9 23
0 25 3 21 33 -6 46 -17 54 -65 54 -23 0 -36 -2 -29 -4z"/>
<path d="M1026 174 c-9 -8 -16 -22 -16 -29 0 -19 28 -45 49 -45 19 0 51 30 51
47 0 15 -34 43 -53 43 -8 0 -23 -7 -31 -16z m58 -17 c16 -25 -16 -56 -38 -37
-19 15 -20 32 -4 48 15 15 28 11 42 -11z"/>
<path d="M1310 176 c-15 -19 -9 -56 12 -69 26 -17 68 7 68 37 0 40 -55 61 -80
32z m54 -19 c8 -12 7 -21 -6 -33 -20 -20 -38 -11 -38 20 0 39 23 46 44 13z"/>
<path d="M1422 178 c-18 -18 -15 -24 18 -38 40 -17 39 -34 -2 -27 -30 5 -31 5
-10 -5 16 -8 29 -9 40 -2 27 18 24 31 -9 43 -25 8 -30 14 -21 23 8 8 15 8 28
-3 15 -12 17 -12 12 1 -6 19 -40 24 -56 8z"/>
<path d="M1576 174 c-9 -8 -16 -22 -16 -29 0 -19 28 -45 48 -45 29 0 45 16 45
45 0 43 -46 61 -77 29z m55 -15 c9 -17 8 -25 -5 -37 -15 -15 -17 -15 -32 0
-13 12 -14 20 -5 37 7 11 16 21 21 21 5 0 14 -10 21 -21z"/>
<path d="M1687 145 c13 -25 28 -43 33 -40 4 2 13 19 21 37 7 18 18 36 23 40 6
4 1 8 -12 8 -13 0 -20 -4 -17 -10 8 -13 -14 -52 -26 -45 -5 4 -9 17 -9 31 0
17 -6 24 -19 24 -18 0 -18 -3 6 -45z"/>
<path d="M1797 183 c-14 -13 -6 -25 8 -13 21 17 38 1 33 -31 -3 -27 -34 -33
-32 -6 2 19 -11 23 -21 7 -12 -20 15 -38 58 -38 23 0 36 2 30 5 -7 3 -13 20
-13 38 0 21 -6 35 -16 39 -20 8 -39 8 -47 -1z"/>
<path d="M1895 144 c0 -32 4 -44 15 -44 11 0 15 11 15 37 0 27 4 38 15 38 11
0 15 -11 15 -38 0 -27 4 -37 16 -37 12 0 14 8 11 33 -6 44 -17 55 -55 55 -31
0 -32 -1 -32 -44z"/>
<path d="M2019 134 c3 -54 2 -57 -18 -51 -12 3 -21 1 -21 -5 0 -5 12 -8 28 -6
26 3 27 6 27 57 0 30 -4 56 -10 58 -6 2 -9 -19 -6 -53z"/>
<path d="M2077 172 c-22 -24 -21 -35 3 -57 20 -18 70 -15 70 5 0 6 -8 5 -20
-2 -16 -11 -23 -10 -37 5 -16 16 -15 17 20 17 38 0 48 15 25 38 -17 17 -42 15
-61 -6z"/>
</g>
</svg>
